ply
format ascii 1.0
comment generated by Dean Mathias  (a = 0.50, b = 0.30901699)
element vertex 20
property float x
property float y
property float z
property float u
property float v
element face 10
property list uint8 int32 vertex_indices
end_header
-0.5 -0.5  0.5 0.0 0.0
 0.5 -0.5  0.5 1.0 0.0
 0.5  0.5  0.5 1.0 1.0
-0.5  0.5  0.5 0.0 1.0
-0.5 -0.5 -0.5 1.0 0.0
 0.5 -0.5 -0.5 0.0 0.0
 0.5  0.5 -0.5 0.0 1.0
-0.5  0.5 -0.5 1.0 1.0
-0.5  0.5  0.5 0.0 0.0
 0.5  0.5  0.5 1.0 0.0
 0.5  0.5 -0.5 1.0 1.0
-0.5  0.5 -0.5 0.0 1.0
 0.5 -0.5  0.5 0.0 0.0
 0.5 -0.5 -0.5 1.0 0.0
 0.5  0.5 -0.5 1.0 1.0
 0.5  0.5  0.5 0.0 1.0
-0.5 -0.5  0.5 1.0 0.0
-0.5 -0.5 -0.5 0.0 0.0
-0.5  0.5 -0.5 0.0 1.0
-0.5  0.5  0.5 1.0 1.0
3 1 2 0
3 0 2 3
3 4 6 5
3 7 6 4
3 8 9 10
3 8 10 11
3 12 13 14
3 12 14 15
3 18 17 16
3 19 18 16